<svg width="18" height="19" viewBox="0 0 18 19" fill="none" xmlns="http://www.w3.org/2000/svg">
<g id="vuesax/linear/magicpen">
<g id="magicpen">
<path id="Vector" d="M2.62499 15.5031C3.24749 16.1259 4.25249 16.1259 4.87499 15.5031L14.625 5.74807C15.2475 5.12525 15.2475 4.11972 14.625 3.4969C14.0025 2.87408 12.9975 2.87408 12.375 3.4969L2.62499 13.252C2.00249 13.8748 2.00249 14.8803 2.62499 15.5031Z" stroke="white" stroke-width="1.5" stroke-linecap="round" stroke-linejoin="round"/>
<path id="Vector_2" d="M13.5075 6.86616L11.2575 4.61499" stroke="white" stroke-width="1.5" stroke-linecap="round" stroke-linejoin="round"/>
<path id="Vector_3" d="M6.375 1.95102L7.5 1.62085L7.17 2.74643L7.5 3.87202L6.375 3.54184L5.25 3.87202L5.58 2.74643L5.25 1.62085L6.375 1.95102Z" stroke="white" stroke-linecap="round" stroke-linejoin="round"/>
<path id="Vector_4" d="M3.375 6.45334L4.5 6.12317L4.17 7.24875L4.5 8.37433L3.375 8.04416L2.25 8.37433L2.58 7.24875L2.25 6.12317L3.375 6.45334Z" stroke="white" stroke-linecap="round" stroke-linejoin="round"/>
<path id="Vector_5" d="M14.625 10.2053L15.75 9.87512L15.42 11.0007L15.75 12.1263L14.625 11.7961L13.5 12.1263L13.83 11.0007L13.5 9.87512L14.625 10.2053Z" stroke="white" stroke-linecap="round" stroke-linejoin="round"/>
</g>
</g>
</svg>
