<svg width="188" height="48" viewBox="0 0 188 48" fill="none" xmlns="http://www.w3.org/2000/svg">
<path d="M64.3732 20.6317V26.4887H67.6837C69.6191 26.4887 70.7523 25.3809 70.7523 23.5602C70.7523 21.7776 69.5554 20.6317 67.6455 20.6317H64.3732ZM64.3732 29.2771V36H60.5279V17.6267H68.0529C72.2802 17.6267 74.6994 19.855 74.6994 23.4838C74.6994 25.8393 73.4771 27.8765 71.3634 28.7042L75.2342 36H70.8796L67.4545 29.2771H64.3732ZM82.912 24.808C81.2822 24.808 80.1108 26.043 79.9835 27.7492H85.7768C85.7004 26.0048 84.5672 24.808 82.912 24.808ZM85.8278 31.8237H89.2401C88.8327 34.4975 86.388 36.2929 83.0138 36.2929C78.8121 36.2929 76.291 33.6063 76.291 29.2389C76.291 24.8844 78.8375 22.0577 82.8738 22.0577C86.8464 22.0577 89.3547 24.7443 89.3547 28.8952V30.0284H79.9453V30.2576C79.9453 32.2057 81.1803 33.5426 83.0775 33.5426C84.4399 33.5426 85.484 32.8678 85.8278 31.8237ZM91.0482 26.3614C91.0482 23.7639 93.3018 22.0577 96.8033 22.0577C100.228 22.0577 102.457 23.7894 102.508 26.4378H99.0825C99.0061 25.3427 98.1275 24.6679 96.7524 24.6679C95.4664 24.6679 94.626 25.2536 94.626 26.1322C94.626 26.807 95.2117 27.2654 96.4086 27.5455L99.0188 28.1057C101.756 28.7169 102.864 29.7992 102.864 31.8364C102.864 34.523 100.394 36.2929 96.7906 36.2929C93.1491 36.2929 90.9081 34.5357 90.7044 31.8746H94.3332C94.5115 33.0206 95.4155 33.6827 96.8925 33.6827C98.3058 33.6827 99.1589 33.1224 99.1589 32.2311C99.1589 31.5436 98.7005 31.1616 97.4782 30.8687L94.9571 30.3085C92.3724 29.7228 91.0482 28.3731 91.0482 26.3614ZM117.328 22.3506V36H113.738V33.5426H113.661C112.987 35.2615 111.637 36.2547 109.574 36.2547C106.62 36.2547 104.659 34.332 104.659 31.1488V22.3506H108.377V30.3722C108.377 32.1929 109.281 33.1606 110.924 33.1606C112.579 33.1606 113.61 31.9765 113.61 30.1684V22.3506H117.328ZM119.748 36V22.3506H123.338V24.8207H123.415C123.988 23.1782 125.452 22.0959 127.311 22.0959C129.284 22.0959 130.66 23.1145 131.118 24.8971H131.194C131.805 23.1782 133.435 22.0959 135.434 22.0959C138.108 22.0959 139.903 23.9294 139.903 26.6797V36H136.186V27.6092C136.186 26.0303 135.396 25.1645 133.957 25.1645C132.544 25.1645 131.614 26.1958 131.614 27.711V36H128.037V27.4946C128.037 26.0303 127.209 25.1645 125.834 25.1645C124.421 25.1645 123.466 26.234 123.466 27.762V36H119.748ZM148.383 24.808C146.754 24.808 145.582 26.043 145.455 27.7492H151.248C151.172 26.0048 150.039 24.808 148.383 24.808ZM151.299 31.8237H154.712C154.304 34.4975 151.859 36.2929 148.485 36.2929C144.284 36.2929 141.762 33.6063 141.762 29.2389C141.762 24.8844 144.309 22.0577 148.345 22.0577C152.318 22.0577 154.826 24.7443 154.826 28.8952V30.0284H145.417V30.2576C145.417 32.2057 146.652 33.5426 148.549 33.5426C149.911 33.5426 150.955 32.8678 151.299 31.8237ZM159.168 36.1528C158.022 36.1528 157.118 35.236 157.118 34.1028C157.118 32.9569 158.022 32.0529 159.168 32.0529C160.301 32.0529 161.218 32.9569 161.218 34.1028C161.218 35.236 160.301 36.1528 159.168 36.1528ZM176.357 36L174.957 31.5436H168.501L167.1 36H163.153L169.532 17.6267H174.053L180.444 36H176.357ZM171.684 21.141L169.329 28.666H174.129L171.773 21.141H171.684ZM186.174 36H182.329V17.6267H186.174V36Z" fill="white"/>
<rect opacity="0.8" width="36.5195" height="43.4609" rx="3" fill="#7757F4"/>
<rect opacity="0.5" width="33.6417" height="40.5187" rx="3" transform="matrix(0.966459 0.25682 -0.260831 0.965384 24.4863 0.244141)" fill="#EBE6FD"/>
</svg>
