<svg width="42" height="42" viewBox="0 0 42 42" fill="none" xmlns="http://www.w3.org/2000/svg">
<g filter="url(#filter0_d_1_1718)">
<circle cx="20.8722" cy="16.709" r="16.709" fill="white"/>
<g clip-path="url(#clip0_1_1718)">
<path d="M20.8941 12.0552C18.3367 12.0552 16.2739 14.0857 16.2739 16.6031C16.2739 19.1205 18.3367 21.1511 20.8941 21.1511C23.4514 21.1511 25.5142 19.1205 25.5142 16.6031C25.5142 14.0857 23.4514 12.0552 20.8941 12.0552ZM20.8941 19.5599C19.2414 19.5599 17.8904 18.2339 17.8904 16.6031C17.8904 14.9724 19.2374 13.6464 20.8941 13.6464C22.5507 13.6464 23.8977 14.9724 23.8977 16.6031C23.8977 18.2339 22.5467 19.5599 20.8941 19.5599ZM26.7808 11.8692C26.7808 12.4589 26.2983 12.93 25.7032 12.93C25.104 12.93 24.6255 12.455 24.6255 11.8692C24.6255 11.2834 25.1081 10.8084 25.7032 10.8084C26.2983 10.8084 26.7808 11.2834 26.7808 11.8692ZM29.8408 12.9458C29.7724 11.5248 29.4427 10.2661 28.3852 9.22908C27.3317 8.19204 26.053 7.86747 24.6095 7.79623C23.1217 7.71311 18.6624 7.71311 17.1746 7.79623C15.7351 7.86352 14.4565 8.18809 13.3989 9.22512C12.3414 10.2622 12.0157 11.5209 11.9433 12.9418C11.8589 14.4064 11.8589 18.796 11.9433 20.2605C12.0117 21.6815 12.3414 22.9402 13.3989 23.9772C14.4565 25.0142 15.7311 25.3388 17.1746 25.4101C18.6624 25.4932 23.1217 25.4932 24.6095 25.4101C26.053 25.3428 27.3317 25.0182 28.3852 23.9772C29.4387 22.9402 29.7684 21.6815 29.8408 20.2605C29.9252 18.796 29.9252 14.4103 29.8408 12.9458ZM27.9187 21.8319C27.6051 22.6077 26.9979 23.2054 26.2058 23.5181C25.0196 23.9812 22.2049 23.8743 20.8941 23.8743C19.5832 23.8743 16.7645 23.9772 15.5823 23.5181C14.7942 23.2093 14.187 22.6116 13.8694 21.8319C13.3989 20.6642 13.5075 17.8935 13.5075 16.6031C13.5075 15.3128 13.403 12.5381 13.8694 11.3744C14.183 10.5986 14.7902 10.0009 15.5823 9.68823C16.7685 9.22512 19.5832 9.332 20.8941 9.332C22.2049 9.332 25.0236 9.22908 26.2058 9.68823C26.9939 9.99697 27.6011 10.5946 27.9187 11.3744C28.3892 12.5421 28.2806 15.3128 28.2806 16.6031C28.2806 17.8935 28.3892 20.6682 27.9187 21.8319Z" fill="black"/>
</g>
</g>
<defs>
<filter id="filter0_d_1_1718" x="0.163208" y="0" width="41.4179" height="41.418" filterUnits="userSpaceOnUse" color-interpolation-filters="sRGB">
<feFlood flood-opacity="0" result="BackgroundImageFix"/>
<feColorMatrix in="SourceAlpha" type="matrix" values="0 0 0 0 0 0 0 0 0 0 0 0 0 0 0 0 0 0 127 0" result="hardAlpha"/>
<feOffset dy="4"/>
<feGaussianBlur stdDeviation="2"/>
<feComposite in2="hardAlpha" operator="out"/>
<feColorMatrix type="matrix" values="0 0 0 0 0 0 0 0 0 0 0 0 0 0 0 0 0 0 0.25 0"/>
<feBlend mode="normal" in2="BackgroundImageFix" result="effect1_dropShadow_1_1718"/>
<feBlend mode="normal" in="SourceGraphic" in2="effect1_dropShadow_1_1718" result="shape"/>
</filter>
<clipPath id="clip0_1_1718">
<rect width="18.0141" height="20.2658" fill="white" transform="translate(11.8722 6.47607)"/>
</clipPath>
</defs>
</svg>
