<svg width="35" height="34" viewBox="0 0 35 34" fill="none" xmlns="http://www.w3.org/2000/svg">
<circle cx="17.4543" cy="16.709" r="16.709" fill="white"/>
<g clip-path="url(#clip0_1_1712)">
<path d="M12.534 22.9695V11.5751H8.67189V22.9695H12.534ZM10.6034 10.0184C11.9502 10.0184 12.7885 9.14345 12.7885 8.05004C12.7634 6.93197 11.9503 6.0813 10.629 6.0813C9.30793 6.0813 8.44403 6.93199 8.44403 8.05004C8.44403 9.1435 9.28213 10.0184 10.5782 10.0184H10.6033H10.6034ZM14.6717 22.9695H18.5338V16.6063C18.5338 16.2657 18.5589 15.9255 18.6608 15.6821C18.94 15.0017 19.5755 14.297 20.6424 14.297C22.0399 14.297 22.599 15.3419 22.599 16.8736V22.9694H26.4609V16.4359C26.4609 12.936 24.5555 11.3075 22.0145 11.3075C19.931 11.3075 19.0163 12.4496 18.5081 13.2274H18.5338V11.5748H14.6717C14.7224 12.644 14.6717 22.9693 14.6717 22.9693L14.6717 22.9695Z" fill="black"/>
</g>
<defs>
<clipPath id="clip0_1_1712">
<rect width="18.0141" height="16.8882" fill="white" transform="translate(8.44794 6.0813)"/>
</clipPath>
</defs>
</svg>
