<svg width="169" height="43" viewBox="0 0 169 43" fill="none" xmlns="http://www.w3.org/2000/svg">
<path d="M58.0843 18.0297V23.2929H61.0591C62.7982 23.2929 63.8166 22.2975 63.8166 20.6613C63.8166 19.0595 62.741 18.0297 61.0248 18.0297H58.0843ZM58.0843 25.7986V31.8398H54.6289V15.3295H61.3909C65.1896 15.3295 67.3635 17.3318 67.3635 20.5926C67.3635 22.7094 66.2651 24.54 64.3658 25.2837L67.844 31.8398H63.931L60.8532 25.7986H58.0843ZM74.7434 21.7826C73.2788 21.7826 72.2262 22.8924 72.1118 24.4256H77.3178C77.2491 22.8581 76.2308 21.7826 74.7434 21.7826ZM77.3635 28.087H80.4299C80.0638 30.4897 77.867 32.103 74.8349 32.103C71.0592 32.103 68.7937 29.6888 68.7937 25.7643C68.7937 21.8512 71.082 19.3112 74.7091 19.3112C78.2789 19.3112 80.5329 21.7254 80.5329 25.4554V26.4737H72.0775V26.6796C72.0775 28.4302 73.1873 29.6316 74.8921 29.6316C76.1164 29.6316 77.0546 29.0252 77.3635 28.087ZM82.0546 23.1785C82.0546 20.8444 84.0798 19.3112 87.2263 19.3112C90.3041 19.3112 92.3064 20.8672 92.3522 23.2471H89.2743C89.2057 22.2631 88.4162 21.6567 87.1805 21.6567C86.0249 21.6567 85.2697 22.183 85.2697 22.9725C85.2697 23.5789 85.7961 23.9908 86.8716 24.2426L89.2171 24.746C91.6771 25.2952 92.6725 26.2677 92.6725 28.0984C92.6725 30.5126 90.4528 32.103 87.2148 32.103C83.9425 32.103 81.9288 30.524 81.7457 28.1327H85.0066C85.1668 29.1625 85.9791 29.7575 87.3064 29.7575C88.5764 29.7575 89.343 29.254 89.343 28.4531C89.343 27.8352 88.9311 27.492 87.8327 27.2288L85.5672 26.7254C83.2446 26.1991 82.0546 24.9863 82.0546 23.1785ZM105.67 19.5743V31.8398H102.444V29.6316H102.375C101.769 31.1762 100.556 32.0687 98.7023 32.0687C96.0478 32.0687 94.2858 30.341 94.2858 27.4806V19.5743H97.6268V26.7826C97.6268 28.4188 98.4391 29.2883 99.9151 29.2883C101.403 29.2883 102.329 28.2243 102.329 26.5995V19.5743H105.67ZM107.844 31.8398V19.5743H111.071V21.794H111.139C111.654 20.318 112.97 19.3455 114.641 19.3455C116.414 19.3455 117.65 20.2608 118.062 21.8627H118.13C118.68 20.318 120.144 19.3455 121.94 19.3455C124.343 19.3455 125.956 20.9931 125.956 23.4645V31.8398H122.615V24.2998C122.615 22.881 121.906 22.103 120.613 22.103C119.343 22.103 118.508 23.0297 118.508 24.3913V31.8398H115.293V24.1968C115.293 22.881 114.549 22.103 113.313 22.103C112.043 22.103 111.185 23.0641 111.185 24.4371V31.8398H107.844ZM133.577 21.7826C132.112 21.7826 131.059 22.8924 130.945 24.4256H136.151C136.082 22.8581 135.064 21.7826 133.577 21.7826ZM136.197 28.087H139.263C138.897 30.4897 136.7 32.103 133.668 32.103C129.892 32.103 127.627 29.6888 127.627 25.7643C127.627 21.8512 129.915 19.3112 133.542 19.3112C137.112 19.3112 139.366 21.7254 139.366 25.4554V26.4737H130.911V26.6796C130.911 28.4302 132.021 29.6316 133.725 29.6316C134.95 29.6316 135.888 29.0252 136.197 28.087ZM143.268 31.9771C142.238 31.9771 141.426 31.1533 141.426 30.135C141.426 29.1053 142.238 28.2929 143.268 28.2929C144.286 28.2929 145.11 29.1053 145.11 30.135C145.11 31.1533 144.286 31.9771 143.268 31.9771ZM158.714 31.8398L157.455 27.8352H151.655L150.396 31.8398H146.849L152.581 15.3295H156.643L162.387 31.8398H158.714ZM154.515 18.4874L152.398 25.2494H156.712L154.595 18.4874H154.515ZM167.536 31.8398H164.08V15.3295H167.536V31.8398Z" fill="#404040"/>
<rect opacity="0.8" width="32.4734" height="38.9337" rx="3" fill="#7757F4"/>
<rect opacity="0.5" width="29.9292" height="36.2798" rx="3" transform="matrix(0.965983 0.258606 -0.259032 0.965869 21.7734 0.21875)" fill="#EBE6FD"/>
</svg>
