<svg width="40" height="40" viewBox="0 0 40 40" fill="none" xmlns="http://www.w3.org/2000/svg">
<path d="M35.4167 15.25C31.5667 9.2 25.9333 5.71667 20 5.71667C17.0333 5.71667 14.15 6.58333 11.5167 8.2C8.88334 9.83333 6.51668 12.2167 4.58334 15.25C2.91668 17.8667 2.91668 22.1167 4.58334 24.7333C8.43334 30.8 14.0667 34.2667 20 34.2667C22.9667 34.2667 25.85 33.4 28.4833 31.7833C31.1167 30.15 33.4833 27.7667 35.4167 24.7333C37.0833 22.1333 37.0833 17.8667 35.4167 15.25ZM20 26.7333C16.2667 26.7333 13.2667 23.7167 13.2667 20C13.2667 16.2833 16.2667 13.2667 20 13.2667C23.7333 13.2667 26.7333 16.2833 26.7333 20C26.7333 23.7167 23.7333 26.7333 20 26.7333Z" fill="#7757F4"/>
<path d="M20 15.2333C17.3833 15.2333 15.25 17.3667 15.25 20C15.25 22.6167 17.3833 24.75 20 24.75C22.6167 24.75 24.7667 22.6167 24.7667 20C24.7667 17.3833 22.6167 15.2333 20 15.2333Z" fill="#7757F4"/>
</svg>
