<svg width="40" height="40" viewBox="0 0 40 40" fill="none" xmlns="http://www.w3.org/2000/svg">
<path d="M26.9833 3.33333H13.0166C6.94998 3.33333 3.33331 6.95 3.33331 13.0167V26.9833C3.33331 33.05 6.94998 36.6667 13.0166 36.6667H26.9833C33.05 36.6667 36.6666 33.05 36.6666 26.9833V13.0167C36.6666 6.95 33.05 3.33333 26.9833 3.33333ZM16.6166 24.8333L12.8666 28.5833C12.6166 28.8333 12.3 28.95 11.9833 28.95C11.6666 28.95 11.3333 28.8333 11.1 28.5833L9.84998 27.3333C9.34998 26.85 9.34998 26.05 9.84998 25.5667C10.3333 25.0833 11.1166 25.0833 11.6166 25.5667L11.9833 25.9333L14.85 23.0667C15.3333 22.5833 16.1166 22.5833 16.6166 23.0667C17.1 23.55 17.1 24.35 16.6166 24.8333ZM16.6166 13.1667L12.8666 16.9167C12.6166 17.1667 12.3 17.2833 11.9833 17.2833C11.6666 17.2833 11.3333 17.1667 11.1 16.9167L9.84998 15.6667C9.34998 15.1833 9.34998 14.3833 9.84998 13.9C10.3333 13.4167 11.1166 13.4167 11.6166 13.9L11.9833 14.2667L14.85 11.4C15.3333 10.9167 16.1166 10.9167 16.6166 11.4C17.1 11.8833 17.1 12.6833 16.6166 13.1667ZM29.2666 27.7H20.5166C19.8333 27.7 19.2666 27.1333 19.2666 26.45C19.2666 25.7667 19.8333 25.2 20.5166 25.2H29.2666C29.9666 25.2 30.5166 25.7667 30.5166 26.45C30.5166 27.1333 29.9666 27.7 29.2666 27.7ZM29.2666 16.0333H20.5166C19.8333 16.0333 19.2666 15.4667 19.2666 14.7833C19.2666 14.1 19.8333 13.5333 20.5166 13.5333H29.2666C29.9666 13.5333 30.5166 14.1 30.5166 14.7833C30.5166 15.4667 29.9666 16.0333 29.2666 16.0333Z" fill="#7757F4"/>
</svg>
