<svg width="34" height="34" viewBox="0 0 34 34" fill="none" xmlns="http://www.w3.org/2000/svg">
<circle cx="17.0363" cy="16.709" r="16.709" fill="white"/>
<g clip-path="url(#clip0_1_1706)">
<path d="M27.1683 10.6486C26.4094 10.9689 25.6045 11.1792 24.7802 11.2723C25.6388 10.7821 26.298 10.0059 26.6084 9.08094C25.7922 9.54233 24.8993 9.86741 23.9682 10.0421C23.2097 9.27235 22.1292 8.79126 20.9333 8.79126C18.6371 8.79126 16.7754 10.5648 16.7754 12.7522C16.7754 13.0627 16.8122 13.365 16.8831 13.6549C13.4276 13.4897 10.364 11.9128 8.31324 9.51632C7.95542 10.1013 7.75038 10.7818 7.75038 11.5077C7.75038 12.8819 8.48447 14.0943 9.60004 14.8046C8.93977 14.7849 8.29404 14.615 7.71674 14.3091C7.7165 14.3257 7.7165 14.3423 7.7165 14.359C7.7165 16.2781 9.14967 17.8791 11.0517 18.243C10.4394 18.4016 9.79717 18.4248 9.17406 18.3108C9.70311 19.8845 11.2386 21.0297 13.058 21.0617C11.635 22.124 9.8422 22.7573 7.8943 22.7573C7.55865 22.7573 7.22775 22.7385 6.90247 22.702C8.74246 23.8258 10.9279 24.4816 13.2759 24.4816C20.9236 24.4816 25.1056 18.4458 25.1056 13.2116C25.1056 13.0398 25.1016 12.8689 25.0936 12.6991C25.9075 12.1385 26.6101 11.4442 27.1683 10.6486Z" fill="black"/>
</g>
<defs>
<clipPath id="clip0_1_1706">
<rect width="20.2658" height="15.7623" fill="white" transform="translate(6.89856 8.72778)"/>
</clipPath>
</defs>
</svg>
